<?xml version="1.0" encoding="UTF-8" standalone="no"?>
<svg width="345px" height="100px" viewBox="0 0 345 100" version="1.1" xmlns="http://www.w3.org/2000/svg" xmlns:xlink="http://www.w3.org/1999/xlink">
<g stroke="none" stroke-width="1" fill="none" fill-rule="evenodd">
<rect id="Rectangle" fill="#FFB48C" x="0" y="0" width="345" height="100"></rect>
<path d="M75.2273182,34.9334245 C75.0144341,34.1329837 74.5821304,33.2800915 74.2623175,32.5333575 C70.4354085,23.3066659 62.0736917,20 55.3220242,20 C46.2836944,20 36.3290312,26.0801696 35,38.6128297 L35,41.1733196 C35,41.2801752 35.036709,42.2400625 35.0888524,42.7202154 C35.8338774,48.6929714 40.5316508,55.0406986 44.0401374,61.0134546 C47.8147639,67.4126567 51.7314986,73.7076536 55.6119415,80 C58.0046982,75.8937303 60.3888339,71.7334747 62.7270833,67.7335026 C63.3643453,66.559625 64.1040864,65.386445 64.7420437,64.2659952 C65.1672558,63.5199587 65.9795805,62.7739222 66.3507026,62.079779 C70.12519,55.1468568 76.2006618,48.1603672 76.2006618,41.2800357 L76.2006618,38.4535227 C76.2008009,37.7076257 75.2791835,35.0942659 75.2273182,34.9334245 L75.2273182,34.9334245 Z M55.4874926,47.7870699 C52.8306817,47.7870699 49.922609,46.4543039 48.4872053,42.7736432 C48.2733478,42.1877507 48.2905899,41.0135941 48.2905899,40.906041 L48.2905899,39.252708 C48.2905899,34.5605457 52.2618318,32.4267809 55.7166455,32.4267809 C59.969879,32.4267809 63.2593632,35.8405814 63.2593632,40.1075531 C63.2593632,44.3743853 59.7407261,47.7870699 55.4874926,47.7870699 L55.4874926,47.7870699 Z" fill="#000000"></path>
<path d="M101.824,75.3958514 L109.152748,75.3958514 L109.152748,27.792 L101.824,27.792 L109.152748,27.792 L131.865265,75.792 L157.284798,27.792 L164.613546,27.792 L157.284798,27.792 L157.284798,75.3958514 L164.613546,75.3958514 L149.890025,75.3958514 L157.284798,75.3958514 L157.284798,27.792 L131.865265,75.792 L109.152748,27.792 L109.152748,75.3958514 L116.547521,75.3958514 L101.824,75.3958514 Z M185.268292,75.3958514 L191.21052,75.3958514 L212.140369,27.8580248 L203.359076,27.8580248 L212.140369,27.8580248 L232.145871,75.3958514 L239.012446,75.3958514 L225.081222,75.3958514 L232.145871,75.3958514 L212.140369,27.8580248 L191.21052,75.3958514 L197.548897,75.3958514 L185.268292,75.3958514 Z M261.874894,27.8580248 L281.088099,27.8580248 C282.452618,27.8580248 283.971172,28.001077 285.643808,28.2871857 C287.316443,28.5732944 288.890017,29.2005234 290.364578,30.1688913 C291.839138,31.1372593 293.071588,32.5017574 294.061964,34.2624264 C295.052341,36.0230955 295.525513,38.355947 295.481497,41.2610509 C295.43748,43.1977869 295.140371,44.8483893 294.590162,46.2129078 C294.039953,47.5774264 293.324692,48.7218441 292.444358,49.6461953 C291.564023,50.5705466 290.584666,51.2968117 289.506256,51.8250124 C288.427846,52.3532131 287.360457,52.7603617 286.304055,53.0464704 C285.247654,53.3325791 284.257292,53.5086434 283.332941,53.5746685 C282.40859,53.6406936 281.660317,53.6737056 281.088099,53.6737056 L269.269667,53.6737056 L269.269667,75.4618762 L276.66444,75.4618762 L261.874894,75.4618762 L269.269667,75.4618762 L269.269667,27.8580248 L261.874894,27.8580248 Z" stroke="#000000" stroke-width="5" stroke-linecap="round" stroke-linejoin="round"></path>
</g>
</svg>
