<?xml version="1.0" encoding="UTF-8" standalone="no"?>
<svg width="1350px" height="100px" viewBox="0 0 1350 100" version="1.1" xmlns="http://www.w3.org/2000/svg" xmlns:xlink="http://www.w3.org/1999/xlink">
<g stroke="none" stroke-width="1" fill="none" fill-rule="evenodd">
<rect fill="#FFB48C" x="0" y="0" width="1350" height="100"></rect>
<path d="M64.2282054,65.8534699 L64.2282054,76.3696114 L30.7466667,76.3696114 L56.7277221,50.3112314 C58.0164714,49.0224821 59.1376665,47.811076 60.0913409,46.6769766 C61.0450154,45.5428772 61.8311407,44.3959076 62.4497403,43.2360332 C63.06834,42.0761589 63.5193955,40.8647528 63.8029203,39.6017785 C64.0864451,38.3388042 64.2282054,36.9340885 64.2282054,35.3875894 C64.2282054,33.8410903 64.0091213,32.1786286 63.5709466,30.4001546 C63.1327718,28.6216806 62.3337593,26.959219 61.1738849,25.4127199 C60.0140106,23.8662208 58.4030981,22.5774908 56.3410993,21.5464914 C54.2791005,20.515492 51.6500914,20 48.4539932,20 C45.206345,20 42.5000121,20.5670412 40.3349133,21.7011405 C38.1698145,22.8352399 36.4171418,24.2141809 35.0768426,25.838005 C33.7365433,27.4618291 32.7828832,29.1500653 32.2158335,30.9027644 C31.6487838,32.6554634 31.3652632,34.1503901 31.3652632,35.3875894 C31.3652632,34.1503901 31.6487838,32.6554634 32.2158335,30.9027644 C32.7828832,29.1500653 33.7365433,27.4618291 35.0768426,25.838005 C36.4171418,24.2141809 38.1698145,22.8352399 40.3349133,21.7011405 C42.5000121,20.5670412 45.206345,20 48.4539932,20 C51.6500914,20 54.2791005,20.515492 56.3410993,21.5464914 C58.4030981,22.5774908 60.0140106,23.8662208 61.1738849,25.4127199 C62.3337593,26.959219 63.1327718,28.6216806 63.5709466,30.4001546 C64.0091213,32.1786286 64.2282054,33.8410903 64.2282054,35.3875894 C64.2282054,36.9340885 64.0864451,38.3388042 63.8029203,39.6017785 C63.5193955,40.8647528 63.06834,42.0761589 62.4497403,43.2360332 C61.8311407,44.3959076 61.0450154,45.5428772 60.0913409,46.6769766 C59.1376665,47.811076 58.0164714,49.0224821 56.7277221,50.3112314 L30.7466667,76.3696114 L64.2282054,76.3696114 L64.2282054,65.8534699 Z M106.679394,20.0773246 L107.297991,20.0773246 C109.823939,20.0773246 112.195202,20.5541546 114.411851,21.5078291 C116.6285,22.4615036 118.561595,23.7631208 120.211194,25.4127199 C121.860793,27.062319 123.16241,28.9954139 124.116085,31.2120626 C125.069759,33.4287114 125.546589,35.7999745 125.546589,38.3259231 L125.546589,58.5849604 C125.546589,61.110909 125.069759,63.4692847 124.116085,65.6601585 C123.16241,67.8510323 121.860793,69.7712399 120.211194,71.420839 C118.561595,73.070438 116.6285,74.3720553 114.411851,75.3257298 C112.195202,76.2794042 109.823939,76.7562343 107.297991,76.7562343 L106.679394,76.7562343 C104.153445,76.7562343 101.782182,76.2794042 99.5655336,75.3257298 C97.3488849,74.3720553 95.41579,73.070438 93.7661909,71.420839 C92.1165918,69.7712399 90.8149746,67.8510323 89.8613001,65.6601585 C88.9076256,63.4692847 88.4307956,61.110909 88.4307956,58.5849604 L88.4307956,38.3259231 C88.4307956,35.7999745 88.9076256,33.4287114 89.8613001,31.2120626 C90.8149746,28.9954139 92.1165918,27.062319 93.7661909,25.4127199 C95.41579,23.7631208 97.3488849,22.4615036 99.5655336,21.5078291 C101.782182,20.5541546 104.153445,20.0773246 106.679394,20.0773246 L106.679394,20.0773246 Z M106.679394,20.0773246 L107.297991,20.0773246 C109.823939,20.0773246 112.195202,20.5541546 114.411851,21.5078291 C116.6285,22.4615036 118.561595,23.7631208 120.211194,25.4127199 C121.860793,27.062319 123.16241,28.9954139 124.116085,31.2120626 C125.069759,33.4287114 125.546589,35.7999745 125.546589,38.3259231 L125.546589,58.5849604 C125.546589,61.110909 125.069759,63.4692847 124.116085,65.6601585 C123.16241,67.8510323 121.860793,69.7712399 120.211194,71.420839 C118.561595,73.070438 116.6285,74.3720553 114.411851,75.3257298 C112.195202,76.2794042 109.823939,76.7562343 107.297991,76.7562343 L106.679394,76.7562343 C104.153445,76.7562343 101.782182,76.2794042 99.5655336,75.3257298 C97.3488849,74.3720553 95.41579,73.070438 93.7661909,71.420839 C92.1165918,69.7712399 90.8149746,67.8510323 89.8613001,65.6601585 C88.9076256,63.4692847 88.4307956,61.110909 88.4307956,58.5849604 L88.4307956,38.3259231 C88.4307956,35.7999745 88.9076256,33.4287114 89.8613001,31.2120626 C90.8149746,28.9954139 92.1165918,27.062319 93.7661909,25.4127199 C95.41579,23.7631208 97.3488849,22.4615036 99.5655336,21.5078291 C101.782182,20.5541546 104.153445,20.0773246 106.679394,20.0773246 L106.679394,20.0773246 Z M157.636285,76.3696114 L165.83269,76.3696114 L165.83269,20.541272 L152.610188,20.541272 L165.83269,20.541272 L165.83269,76.3696114 L174.106419,76.3696114 L157.636285,76.3696114 Z M205.732168,45.8264063 C207.433317,44.0221574 209.443735,42.5787798 211.763484,41.4962304 C214.083233,40.413681 216.583369,39.8724145 219.263967,39.8724145 C221.789916,39.8724145 224.186954,40.3621318 226.455152,41.3415813 C228.723351,42.3210307 230.695108,43.6613099 232.370482,45.3624589 C234.045856,47.063608 235.373248,49.0482521 236.352697,51.3164508 C237.332147,53.5846495 237.821864,55.9816872 237.821864,58.5076358 C237.821864,61.0851344 237.332147,63.4950593 236.352697,65.7374831 C235.373248,67.9799068 234.045856,69.925889 232.370482,71.5754881 C230.695108,73.2250872 228.723351,74.5395917 226.455152,75.5190412 C224.186954,76.4984906 221.789916,76.988208 219.263967,76.988208 C216.686469,76.988208 214.263657,76.4984906 211.995458,75.5190412 C209.727259,74.5395917 207.755502,73.2250872 206.080128,71.5754881 C204.404754,69.925889 203.077362,67.9799068 202.097913,65.7374831 C201.118463,63.4950593 200.628746,61.0851344 200.628746,58.5076358 C200.628746,56.394087 200.98959,54.4223302 201.71129,52.5923062 C202.43299,50.7622822 203.309326,49.0482714 204.340325,47.4502223 L222.898222,20.3092983 L204.340325,47.4502223 C203.309326,49.0482714 202.43299,50.7622822 201.71129,52.5923062 C200.98959,54.4223302 200.628746,56.394087 200.628746,58.5076358 C200.628746,61.0851344 201.118463,63.4950593 202.097913,65.7374831 C203.077362,67.9799068 204.404754,69.925889 206.080128,71.5754881 C207.755502,73.2250872 209.727259,74.5395917 211.995458,75.5190412 C214.263657,76.4984906 216.686469,76.988208 219.263967,76.988208 C221.789916,76.988208 224.186954,76.4984906 226.455152,75.5190412 C228.723351,74.5395917 230.695108,73.2250872 232.370482,71.5754881 C234.045856,69.925889 235.373248,67.9799068 236.352697,65.7374831 C237.332147,63.4950593 237.821864,61.0851344 237.821864,58.5076358 C237.821864,55.9816872 237.332147,53.5846495 236.352697,51.3164508 C235.373248,49.0482521 234.045856,47.063608 232.370482,45.3624589 C230.695108,43.6613099 228.723351,42.3210307 226.455152,41.3415813 C224.186954,40.3621318 221.789916,39.8724145 219.263967,39.8724145 C216.583369,39.8724145 214.083233,40.413681 211.763484,41.4962304 C209.443735,42.5787798 207.433317,44.0221574 205.732168,45.8264063 L205.732168,45.8264063 Z" stroke="#000000" stroke-width="5" stroke-linecap="round" stroke-linejoin="round"></path>
<ellipse fill="#000000" cx="268.571429" cy="72.8571429" rx="7.14285714" ry="7.14285714"></ellipse>
<ellipse fill="#000000" cx="412.380952" cy="72.8571429" rx="7.14285714" ry="7.14285714"></ellipse>
<path d="M307.723275,75.8283395 L315.919679,75.8283395 L315.919679,20 L302.697178,20 L315.919679,20 L315.919679,75.8283395 L324.193408,75.8283395 L307.723275,75.8283395 Z M359.76271,75.8283395 L367.959115,75.8283395 L367.959115,20 L354.736613,20 L367.959115,20 L367.959115,75.8283395 L376.232844,75.8283395 L359.76271,75.8283395 Z" id="11" stroke="#000000" stroke-width="5" stroke-linecap="round" stroke-linejoin="round"></path>
<path d="M449.691184,75.8283395 L457.887589,75.8283395 L457.887589,20 L444.665087,20 L457.887589,20 L457.887589,75.8283395 L466.161318,75.8283395 L449.691184,75.8283395 Z M513.329305,75.8283395 L529.799439,75.8283395 L521.52571,75.8283395 L521.52571,20 L520.133867,20 L492.297022,61.3686449 L492.297022,62.7604871 L529.799439,62.7604871 L492.297022,62.7604871 L492.297022,61.3686449 L520.133867,20 L521.52571,20 L521.52571,75.8283395 L513.329305,75.8283395 Z" id="14" stroke="#000000" stroke-width="5" stroke-linecap="round" stroke-linejoin="round"></path>
<path d="M581.796345,76.446936 L590.379372,76.446936 L590.379372,20.6959211 L581.796345,20.6959211 L590.379372,20.6959211 L616.979024,76.9108834 L646.748984,20.6959211 L655.332011,20.6959211 L646.748984,20.6959211 L646.748984,76.446936 L655.332011,76.446936 L638.088632,76.446936 L646.748984,76.446936 L646.748984,20.6959211 L616.979024,76.9108834 L590.379372,20.6959211 L590.379372,76.446936 L599.039724,76.446936 L581.796345,76.446936 Z M707.236128,76.7562343 C711.153926,76.7562343 714.865468,76.0087709 718.370866,74.5138218 C721.876265,73.0188726 724.930554,70.9955666 727.533828,68.443843 C730.137102,65.8921195 732.199069,62.902266 733.719794,59.4741929 C735.240518,56.0461199 736.000868,52.3732395 736.000868,48.4554417 C736.000868,44.5376439 735.240518,40.8518763 733.719794,37.3980282 C732.199069,33.9441802 730.137102,30.9285521 727.533828,28.3510535 C724.930554,25.773555 721.876265,23.7373617 718.370866,22.2424125 C714.865468,20.7474634 711.153926,20 707.236128,20 C703.266781,20 699.529464,20.7474634 696.024066,22.2424125 C692.518668,23.7373617 689.464378,25.773555 686.861104,28.3510535 C684.257831,30.9285521 682.195863,33.9441802 680.675139,37.3980282 C679.154415,40.8518763 678.394064,44.5376439 678.394064,48.4554417 C678.394064,52.3732395 679.154415,56.0461199 680.675139,59.4741929 C682.195863,62.902266 684.257831,65.8921195 686.861104,68.443843 C689.464378,70.9955666 692.518668,73.0188726 696.024066,74.5138218 C699.529464,76.0087709 703.266781,76.7562343 707.236128,76.7562343 L707.236128,76.7562343 Z M760.83752,76.446936 L769.497872,76.446936 L769.497872,20.6959211 L760.83752,20.6959211 L769.497872,20.6959211 L811.639762,77.1428571 L811.639762,20.6959211 L803.752656,20.6959211 L820.300114,20.6959211 L811.639762,20.6959211 L811.639762,77.1428571 L769.497872,20.6959211 L769.497872,76.446936 L778.158224,76.446936 L760.83752,76.446936 Z" stroke="#000000" stroke-width="5" stroke-linecap="round" stroke-linejoin="round"></path>
<path d="M930.412261,48.952327 L913.503528,33.6843362 C913.033738,33.3063377 912.520147,33.2336105 911.96229,33.4663072 C911.405051,33.6993095 911.125275,34.1206998 911.125275,34.7317006 L911.125275,44.5031292 L856.170966,44.5031292 C855.759784,44.5031292 855.422017,44.6337632 855.158126,44.8954898 C854.89439,45.1570635 854.761905,45.49167 854.761905,45.8986983 L854.761905,54.2739466 C854.761905,54.6808221 854.893773,55.0154286 855.157972,55.2766968 C855.422479,55.5382705 855.760247,55.6689046 856.170812,55.6689046 L911.125583,55.6689046 L911.125583,65.4401804 C911.125583,66.0226097 911.405822,66.4440001 911.962753,66.7049626 C912.521072,66.9385761 913.034664,66.8502644 913.504453,66.4440001 L930.413187,51.0006082 C930.70669,50.7100047 930.853056,50.3616471 930.853056,49.9541605 C930.853056,49.5770788 930.705764,49.2430833 930.412261,48.952327 L930.412261,48.952327 Z" fill="#000000"></path>
<path d="M966.937143,63.78663 C966.937143,65.9086877 967.364136,67.7848691 968.218135,69.4152305 C969.072134,71.0455918 970.223721,72.4430235 971.672931,73.6075674 C973.122141,74.7721112 974.830113,75.6519756 976.796898,76.2471869 C978.763683,76.8423982 980.859831,77.1399994 983.085404,77.1399994 C985.310976,77.1399994 987.420063,76.8035807 989.412727,76.1307331 C991.405391,75.4578855 993.15218,74.4356902 994.653148,73.0641163 C996.154116,71.6925424 997.34452,69.9845704 998.224398,67.9401489 C999.104276,65.8957275 999.544208,63.4761005 999.544208,60.6811952 C999.544208,57.3687149 999.000762,54.6514867 997.913854,52.529429 C996.826947,50.4073713 995.403637,48.7382168 993.643882,47.5219155 C991.884127,46.3056141 989.878553,45.4645673 987.627102,44.9987497 C985.37565,44.5329322 983.085415,44.3000269 980.756327,44.3000269 C982.56784,44.3000269 984.379326,44.1576959 986.190838,43.8730296 C988.002351,43.5883634 989.619749,43.0319785 991.04308,42.2038585 C992.466411,41.3757384 993.617999,40.2500295 994.497876,38.8266982 C995.377754,37.4033668 995.817686,35.5271854 995.817686,33.1980977 C995.817686,29.0057398 994.769612,25.7709443 992.673433,23.4936141 C990.577254,21.2162839 987.79533,20.0776359 984.327577,20.0776359 C982.567822,20.0776359 980.937485,20.3234803 979.436518,20.8151766 C977.93555,21.3068729 976.641632,21.9926496 975.554724,22.8725271 C974.467817,23.7524047 973.613831,24.839296 972.992741,26.1332336 C972.371651,27.4271712 972.06111,28.8763596 972.06111,30.4808423 C972.06111,28.8763596 972.371651,27.4271712 972.992741,26.1332336 C973.613831,24.839296 974.467817,23.7524047 975.554724,22.8725271 C976.641632,21.9926496 977.93555,21.3068729 979.436518,20.8151766 C980.937485,20.3234803 982.567822,20.0776359 984.327577,20.0776359 C987.79533,20.0776359 990.577254,21.2162839 992.673433,23.4936141 C994.769612,25.7709443 995.817686,29.0057398 995.817686,33.1980977 C995.817686,35.5271854 995.377754,37.4033668 994.497876,38.8266982 C993.617999,40.2500295 992.466411,41.3757384 991.04308,42.2038585 C989.619749,43.0319785 988.002351,43.5883634 986.190838,43.8730296 C984.379326,44.1576959 982.56784,44.3000269 980.756327,44.3000269 C983.085415,44.3000269 985.37565,44.5329322 987.627102,44.9987497 C989.878553,45.4645673 991.884127,46.3056141 993.643882,47.5219155 C995.403637,48.7382168 996.826947,50.4073713 997.913854,52.529429 C999.000762,54.6514867 999.544208,57.3687149 999.544208,60.6811952 C999.544208,63.4761005 999.104276,65.8957275 998.224398,67.9401489 C997.34452,69.9845704 996.154116,71.6925424 994.653148,73.0641163 C993.15218,74.4356902 991.405391,75.4578855 989.412727,76.1307331 C987.420063,76.8035807 985.310976,77.1399994 983.085404,77.1399994 C980.859831,77.1399994 978.763683,76.8423982 976.796898,76.2471869 C974.830113,75.6519756 973.122141,74.7721112 971.672931,73.6075674 C970.223721,72.4430235 969.072134,71.0455918 968.218135,69.4152305 C967.364136,67.7848691 966.937143,65.9086877 966.937143,63.78663 Z M1040.44106,20 L1041.06215,20 C1043.59826,20 1045.97907,20.4787497 1048.20465,21.4362636 C1050.43022,22.3937774 1052.3711,23.7006348 1054.02734,25.3568749 C1055.68358,27.0131151 1056.99043,28.9539924 1057.94795,31.1795651 C1058.90546,33.4051378 1059.38421,35.7859473 1059.38421,38.322065 L1059.38421,58.6626626 C1059.38421,61.1987804 1058.90546,63.5666507 1057.94795,65.7663446 C1056.99043,67.9660386 1055.68358,69.8939767 1054.02734,71.5502168 C1052.3711,73.206457 1050.43022,74.5133144 1048.20465,75.4708282 C1045.97907,76.428342 1043.59826,76.9070918 1041.06215,76.9070918 L1040.44106,76.9070918 C1037.90494,76.9070918 1035.52413,76.428342 1033.29856,75.4708282 C1031.07299,74.5133144 1029.13211,73.206457 1027.47587,71.5502168 C1025.81963,69.8939767 1024.51277,67.9660386 1023.55526,65.7663446 C1022.59774,63.5666507 1022.11899,61.1987804 1022.11899,58.6626626 L1022.11899,38.322065 C1022.11899,35.7859473 1022.59774,33.4051378 1023.55526,31.1795651 C1024.51277,28.9539924 1025.81963,27.0131151 1027.47587,25.3568749 C1029.13211,23.7006348 1031.07299,22.3937774 1033.29856,21.4362636 C1035.52413,20.4787497 1037.90494,20 1040.44106,20 Z M1040.44106,20 L1041.06215,20 C1043.59826,20 1045.97907,20.4787497 1048.20465,21.4362636 C1050.43022,22.3937774 1052.3711,23.7006348 1054.02734,25.3568749 C1055.68358,27.0131151 1056.99043,28.9539924 1057.94795,31.1795651 C1058.90546,33.4051378 1059.38421,35.7859473 1059.38421,38.322065 L1059.38421,58.6626626 C1059.38421,61.1987804 1058.90546,63.5666507 1057.94795,65.7663446 C1056.99043,67.9660386 1055.68358,69.8939767 1054.02734,71.5502168 C1052.3711,73.206457 1050.43022,74.5133144 1048.20465,75.4708282 C1045.97907,76.428342 1043.59826,76.9070918 1041.06215,76.9070918 L1040.44106,76.9070918 C1037.90494,76.9070918 1035.52413,76.428342 1033.29856,75.4708282 C1031.07299,74.5133144 1029.13211,73.206457 1027.47587,71.5502168 C1025.81963,69.8939767 1024.51277,67.9660386 1023.55526,65.7663446 C1022.59774,63.5666507 1022.11899,61.1987804 1022.11899,58.6626626 L1022.11899,38.322065 C1022.11899,35.7859473 1022.59774,33.4051378 1023.55526,31.1795651 C1024.51277,28.9539924 1025.81963,27.0131151 1027.47587,25.3568749 C1029.13211,23.7006348 1031.07299,22.3937774 1033.29856,21.4362636 C1035.52413,20.4787497 1037.90494,20 1040.44106,20 Z" stroke="#000000" stroke-width="5" stroke-linecap="round" stroke-linejoin="round"></path>
<polygon stroke="#000000" stroke-width="5" stroke-linecap="round" stroke-linejoin="round" points="1092.124 20.8686849 1109.22474 20.8686849 1100.71271 20.8686849 1116.66318 76.7719995 1131.92348 20.8686849 1147.33715 76.7719995 1163.3643 20.8686849 1154.85227 20.8686849 1172.0297 20.8686849 1163.3643 20.8686849 1147.33715 76.7719995 1131.92348 20.8686849 1116.66318 76.7719995 1100.71271 20.8686849"></polygon>
<polygon stroke="#000000" stroke-width="5" stroke-linecap="round" stroke-linejoin="round" points="1193.30011 76.1585201 1201.58208 76.1585201 1201.58208 20.8686849 1193.30011 20.8686849 1229.80214 20.8686849 1229.80214 30.3009314 1229.80214 20.8686849 1201.58208 20.8686849 1201.58208 48.1685203 1225.66115 48.1685203 1201.58208 48.1685203 1201.58208 76.1585201 1229.80214 76.1585201 1229.80214 68.1066024 1229.80214 76.1585201"></polygon>
<path d="M1283.84178,76.0818352 C1288.03391,76.0818352 1291.89368,75.3533356 1295.4212,73.8963146 C1298.94873,72.4392937 1301.97775,70.4582861 1304.50837,67.9532325 C1307.03898,65.4481789 1309.00721,62.4958386 1310.41311,59.096123 C1311.81901,55.6964074 1312.52194,52.0283482 1312.52194,48.0918354 C1312.52194,44.666558 1311.97237,41.3180162 1310.87322,38.0461094 C1309.77406,34.7742027 1308.02311,31.8602045 1305.6203,29.3040273 C1303.21749,26.7478502 1300.13735,24.6901584 1296.37977,23.1308904 C1292.62218,21.5716223 1288.05948,20.792 1282.69151,20.792 L1261.21972,20.792 L1282.69151,20.792 C1288.05948,20.792 1292.62218,21.5716223 1296.37977,23.1308904 C1300.13735,24.6901584 1303.21749,26.7478502 1305.6203,29.3040273 C1308.02311,31.8602045 1309.77406,34.7742027 1310.87322,38.0461094 C1311.97237,41.3180162 1312.52194,44.666558 1312.52194,48.0918354 C1312.52194,52.0283482 1311.81901,55.6964074 1310.41311,59.096123 C1309.00721,62.4958386 1307.03898,65.4481789 1304.50837,67.9532325 C1301.97775,70.4582861 1298.94873,72.4392937 1295.4212,73.8963146 C1291.89368,75.3533356 1288.03391,76.0818352 1283.84178,76.0818352 L1261.21972,76.0818352 L1283.84178,76.0818352 Z" stroke="#000000" stroke-width="5" stroke-linecap="round" stroke-linejoin="round"></path>
<path d="M1268.5,21.5 L1268.5,75.5" stroke="#000000" stroke-width="5" stroke-linecap="round" stroke-linejoin="round"></path>
</g>
</svg>