<?xml version="1.0" encoding="UTF-8" standalone="no"?>
<svg width="640px" height="100px" viewBox="0 0 640 100" version="1.1" xmlns="http://www.w3.org/2000/svg" xmlns:xlink="http://www.w3.org/1999/xlink">
<g stroke="none" stroke-width="1" fill="none" fill-rule="evenodd">
    <rect fill="#FFB48C" x="0" y="0" width="640" height="100"></rect>
    <path d="M30.3731343,46.8656716 C32.1641881,44.9660692 34.2808562,43.44641 36.7232022,42.3066486 C39.1655482,41.1668871 41.7978149,40.5970149 44.6200814,40.5970149 C47.2795248,40.5970149 49.8032445,41.1126136 52.1913161,42.1438263 C54.5793878,43.1750391 56.6553507,44.5861512 58.4192673,46.3772049 C60.1831839,48.1682586 61.5807275,50.25779 62.6119403,52.6458616 C63.6431531,55.0339332 64.1587517,57.5576529 64.1587517,60.2170963 C64.1587517,62.9308141 63.6431531,65.4681022 62.6119403,67.8290366 C61.5807275,70.1899711 60.1831839,72.2387973 58.4192673,73.9755767 C56.6553507,75.712356 54.5793878,77.0963313 52.1913161,78.1275441 C49.8032445,79.1587569 47.2795248,79.6743555 44.6200814,79.6743555 C41.9063636,79.6743555 39.3555072,79.1587569 36.9674355,78.1275441 C34.5793639,77.0963313 32.5034009,75.712356 30.7394844,73.9755767 C28.9755678,72.2387973 27.5780242,70.1899711 26.5468114,67.8290366 C25.5155986,65.4681022 25,62.9308141 25,60.2170963 C25,57.9918478 25.3799148,55.9158848 26.1397558,53.9891452 C26.8995967,52.0624056 27.8222469,50.2578103 28.9077341,48.5753053 L48.4464043,20 L28.9077341,48.5753053 C27.8222469,50.2578103 26.8995967,52.0624056 26.1397558,53.9891452 C25.3799148,55.9158848 25,57.9918478 25,60.2170963 C25,62.9308141 25.5155986,65.4681022 26.5468114,67.8290366 C27.5780242,70.1899711 28.9755678,72.2387973 30.7394844,73.9755767 C32.5034009,75.712356 34.5793639,77.0963313 36.9674355,78.1275441 C39.3555072,79.1587569 41.9063636,79.6743555 44.6200814,79.6743555 C47.2795248,79.6743555 49.8032445,79.1587569 52.1913161,78.1275441 C54.5793878,77.0963313 56.6553507,75.712356 58.4192673,73.9755767 C60.1831839,72.2387973 61.5807275,70.1899711 62.6119403,67.8290366 C63.6431531,65.4681022 64.1587517,62.9308141 64.1587517,60.2170963 C64.1587517,57.5576529 63.6431531,55.0339332 62.6119403,52.6458616 C61.5807275,50.25779 60.1831839,48.1682586 58.4192673,46.3772049 C56.6553507,44.5861512 54.5793878,43.1750391 52.1913161,42.1438263 C49.8032445,41.1126136 47.2795248,40.5970149 44.6200814,40.5970149 C41.7978149,40.5970149 39.1655482,41.1668871 36.7232022,42.3066486 C34.2808562,43.44641 32.1641881,44.9660692 30.3731343,46.8656716 L30.3731343,46.8656716 Z" stroke="#000000" stroke-width="5" stroke-linecap="round" stroke-linejoin="round"></path>
    <path d="M99,20.0814111 L122.690638,20.0814111 C124.373143,20.0814111 126.24558,20.2578001 128.308005,20.6105834 C130.370431,20.9633668 132.31071,21.7367647 134.128901,22.9308005 C135.947092,24.1248364 137.466751,25.8073161 138.687924,27.9782904 C139.909097,30.1492646 140.492538,33.0257623 140.438263,36.6078697 C140.383989,38.9959414 140.017642,41.0311992 139.339213,42.7137042 C138.660784,44.3962092 137.778839,45.8073213 136.693351,46.9470828 C135.607864,48.0868442 134.400278,48.9823577 133.070556,49.6336499 C131.740835,50.2849422 130.424701,50.7869725 129.122117,51.1397558 C127.819532,51.4925391 126.598377,51.7096332 125.458616,51.7910448 C124.318855,51.8724563 123.396204,51.9131615 122.690638,51.9131615 L108.118046,51.9131615 L108.118046,78.7788331 L117.236092,78.7788331 L99,78.7788331 L108.118046,78.7788331 L108.118046,20.0814111 L99,20.0814111 Z M164.898236,78.697422 L173.934871,78.697422 L173.934871,20 L164.898236,20 L173.934871,20 L201.940298,79.1858887 L233.283582,20 L242.320217,20 L233.283582,20 L233.283582,78.697422 L242.320217,78.697422 L224.165536,78.697422 L233.283582,78.697422 L233.283582,20 L201.940298,79.1858887 L173.934871,20 L173.934871,78.697422 L183.052917,78.697422 L164.898236,78.697422 Z" stroke="#000000" stroke-width="5" stroke-linecap="round" stroke-linejoin="round"></path>
    <path d="M357.432874,49.3999434 L339.678704,33.368553 C339.185425,32.9716546 338.646154,32.895291 338.060405,33.1396225 C337.475304,33.3842749 337.181538,33.8267348 337.181538,34.4682856 L337.181538,44.7282856 L279.479514,44.7282856 C279.047773,44.7282856 278.693117,44.8654514 278.416032,45.1402642 C278.139109,45.4149167 278,45.7662535 278,46.1936332 L278,54.9876439 C278,55.4148632 278.138462,55.7662001 278.41587,56.0405316 C278.693603,56.315184 279.048259,56.4523498 279.479352,56.4523498 L337.181862,56.4523498 L337.181862,66.7121894 C337.181862,67.3237402 337.476113,67.7662001 338.060891,68.0402108 C338.647126,68.2855049 339.186397,68.1927776 339.679676,67.7662001 L357.433846,51.5506386 C357.742024,51.2455049 357.895709,50.8797295 357.895709,50.4518685 C357.895709,50.0559327 357.741053,49.7052375 357.432874,49.3999434 L357.432874,49.3999434 Z" fill="#000000"></path>
    <path d="M418.933514,79.6743555 C416.599717,79.6743555 414.415207,79.2401672 412.379919,78.3717775 C410.34463,77.5033878 408.553603,76.3229383 407.006784,74.8303935 C405.459965,73.3378487 404.23881,71.5739586 403.343284,69.5386703 C402.447757,67.503382 402,65.3460087 402,63.0664858 C402,60.7869628 402.447757,58.6295896 403.343284,56.5943012 C404.23881,54.5590129 405.459965,52.7815544 407.006784,51.2618725 C408.553603,49.7421905 410.34463,48.5346042 412.379919,47.6390773 C414.415207,46.7435505 416.599717,46.2957938 418.933514,46.2957938 C421.267312,46.2957938 423.46539,46.7435505 425.527815,47.6390773 C427.590241,48.5346042 429.381268,49.7421905 430.90095,51.2618725 C432.420632,52.7815544 433.628218,54.5590129 434.523745,56.5943012 C435.419272,58.6295896 435.867028,60.7869628 435.867028,63.0664858 C435.867028,65.3460087 435.419272,67.503382 434.523745,69.5386703 C433.628218,71.5739586 432.420632,73.3378487 430.90095,74.8303935 C429.381268,76.3229383 427.590241,77.5033878 425.527815,78.3717775 C423.46539,79.2401672 421.267312,79.6743555 418.933514,79.6743555 L418.933514,79.6743555 Z M418.933514,46.2957938 C417.033912,46.2957938 415.229317,45.9565841 413.519674,45.2781547 C411.810032,44.5997252 410.331078,43.6635066 409.082768,42.4694708 C407.834458,41.275435 406.843966,39.8778913 406.111262,38.2767978 C405.378558,36.6757043 405.012212,34.9796562 405.012212,33.1886024 C405.012212,31.3975487 405.378558,29.7015005 406.111262,28.1004071 C406.843966,26.4993136 407.834458,25.1017699 409.082768,23.9077341 C410.331078,22.7136982 411.810032,21.7639113 413.519674,21.0583446 C415.229317,20.352778 417.033912,20 418.933514,20 C420.887391,20 422.705555,20.352778 424.38806,21.0583446 C426.070565,21.7639113 427.549519,22.7136982 428.824966,23.9077341 C430.100413,25.1017699 431.104474,26.4993136 431.837178,28.1004071 C432.569882,29.7015005 432.936228,31.3975487 432.936228,33.1886024 C432.936228,34.9796562 432.569882,36.6757043 431.837178,38.2767978 C431.104474,39.8778913 430.100413,41.275435 428.824966,42.4694708 C427.549519,43.6635066 426.070565,44.5997252 424.38806,45.2781547 C422.705555,45.9565841 420.887391,46.2957938 418.933514,46.2957938 L418.933514,46.2957938 Z M418.933514,79.6743555 C416.599717,79.6743555 414.415207,79.2401672 412.379919,78.3717775 C410.34463,77.5033878 408.553603,76.3229383 407.006784,74.8303935 C405.459965,73.3378487 404.23881,71.5739586 403.343284,69.5386703 C402.447757,67.503382 402,65.3460087 402,63.0664858 C402,60.7869628 402.447757,58.6295896 403.343284,56.5943012 C404.23881,54.5590129 405.459965,52.7815544 407.006784,51.2618725 C408.553603,49.7421905 410.34463,48.5346042 412.379919,47.6390773 C414.415207,46.7435505 416.599717,46.2957938 418.933514,46.2957938 C421.267312,46.2957938 423.46539,46.7435505 425.527815,47.6390773 C427.590241,48.5346042 429.381268,49.7421905 430.90095,51.2618725 C432.420632,52.7815544 433.628218,54.5590129 434.523745,56.5943012 C435.419272,58.6295896 435.867028,60.7869628 435.867028,63.0664858 C435.867028,65.3460087 435.419272,67.503382 434.523745,69.5386703 C433.628218,71.5739586 432.420632,73.3378487 430.90095,74.8303935 C429.381268,76.3229383 427.590241,77.5033878 425.527815,78.3717775 C423.46539,79.2401672 421.267312,79.6743555 418.933514,79.6743555 L418.933514,79.6743555 Z M418.933514,46.2957938 C417.033912,46.2957938 415.229317,45.9565841 413.519674,45.2781547 C411.810032,44.5997252 410.331078,43.6635066 409.082768,42.4694708 C407.834458,41.275435 406.843966,39.8778913 406.111262,38.2767978 C405.378558,36.6757043 405.012212,34.9796562 405.012212,33.1886024 C405.012212,31.3975487 405.378558,29.7015005 406.111262,28.1004071 C406.843966,26.4993136 407.834458,25.1017699 409.082768,23.9077341 C410.331078,22.7136982 411.810032,21.7639113 413.519674,21.0583446 C415.229317,20.352778 417.033912,20 418.933514,20 C420.887391,20 422.705555,20.352778 424.38806,21.0583446 C426.070565,21.7639113 427.549519,22.7136982 428.824966,23.9077341 C430.100413,25.1017699 431.104474,26.4993136 431.837178,28.1004071 C432.569882,29.7015005 432.936228,31.3975487 432.936228,33.1886024 C432.936228,34.9796562 432.569882,36.6757043 431.837178,38.2767978 C431.104474,39.8778913 430.100413,41.275435 428.824966,42.4694708 C427.549519,43.6635066 426.070565,44.5997252 424.38806,45.2781547 C422.705555,45.9565841 420.887391,46.2957938 418.933514,46.2957938 L418.933514,46.2957938 Z" id="8" stroke="#000000" stroke-width="5" stroke-linecap="round" stroke-linejoin="round"></path>
    <path d="M471,20.0814111 L494.690638,20.0814111 C496.373143,20.0814111 498.24558,20.2578001 500.308005,20.6105834 C502.370431,20.9633668 504.31071,21.7367647 506.128901,22.9308005 C507.947092,24.1248364 509.466751,25.8073161 510.687924,27.9782904 C511.909097,30.1492646 512.492538,33.0257623 512.438263,36.6078697 C512.383989,38.9959414 512.017642,41.0311992 511.339213,42.7137042 C510.660784,44.3962092 509.778839,45.8073213 508.693351,46.9470828 C507.607864,48.0868442 506.400278,48.9823577 505.070556,49.6336499 C503.740835,50.2849422 502.424701,50.7869725 501.122117,51.1397558 C499.819532,51.4925391 498.598377,51.7096332 497.458616,51.7910448 C496.318855,51.8724563 495.396204,51.9131615 494.690638,51.9131615 L480.118046,51.9131615 L480.118046,78.7788331 L489.236092,78.7788331 L471,78.7788331 L480.118046,78.7788331 L480.118046,20.0814111 L471,20.0814111 Z M536.898236,78.697422 L545.934871,78.697422 L545.934871,20 L536.898236,20 L545.934871,20 L573.940298,79.1858887 L605.283582,20 L614.320217,20 L605.283582,20 L605.283582,78.697422 L614.320217,78.697422 L596.165536,78.697422 L605.283582,78.697422 L605.283582,20 L573.940298,79.1858887 L545.934871,20 L545.934871,78.697422 L555.052917,78.697422 L536.898236,78.697422 Z" stroke="#000000" stroke-width="5" stroke-linecap="round" stroke-linejoin="round"></path>
</g>
</svg>
