<?xml version="1.0" encoding="UTF-8" standalone="no"?>
<svg width="1381px" height="160px" viewBox="0 0 1381 160" version="1.1" xmlns="http://www.w3.org/2000/svg" xmlns:xlink="http://www.w3.org/1999/xlink">
<g stroke="none" stroke-width="1" fill="none" fill-rule="evenodd">
<rect fill="#50E3C2" x="0" y="0" width="1381" height="160"></rect>
<path d="M220.908191,55.5441084 L220.908191,83.7677844 L246.749818,83.7677844 C248.001002,83.7677844 249.63714,83.6956018 251.658283,83.5512344 C253.679426,83.4068671 255.844904,83.0218932 258.154782,82.3963014 C260.464659,81.7707095 262.798563,80.8804576 265.156563,79.7255188 C267.514563,78.57058 269.65598,76.9825629 271.580878,74.96142 C273.505776,72.9402771 275.069732,70.4379472 276.272793,67.4543553 C277.475855,64.4707634 278.125498,60.8616338 278.221743,56.6268581 C278.317988,50.2746947 277.283371,45.1737915 275.11786,41.3239955 C272.95235,37.4741994 270.257533,34.4906523 267.033329,32.3732645 C263.809125,30.2558767 260.368421,28.8844074 256.711115,28.2588156 C253.053809,27.6332237 249.73341,27.3204325 246.749818,27.3204325 L220.908191,27.3204325 L220.908191,55.5441084 L220.908191,131.408772 L204.739129,131.408772 L237.077254,131.408772 L220.908191,131.408772 L220.908191,83.7677844 L246.749818,83.7677844 C248.001002,83.7677844 249.63714,83.6956018 251.658283,83.5512344 C253.679426,83.4068671 255.844904,83.0218932 258.154782,82.3963014 C260.464659,81.7707095 262.798563,80.8804576 265.156563,79.7255188 C267.514563,78.57058 269.65598,76.9825629 271.580878,74.96142 C273.505776,72.9402771 275.069732,70.4379472 276.272793,67.4543553 C277.475855,64.4707634 278.125498,60.8616338 278.221743,56.6268581 C278.317988,50.2746947 277.283371,45.1737915 275.11786,41.3239955 C272.95235,37.4741994 270.257533,34.4906523 267.033329,32.3732645 C263.809125,30.2558767 260.368421,28.8844074 256.711115,28.2588156 C253.053809,27.6332237 249.73341,27.3204325 246.749818,27.3204325 L204.739129,27.3204325 L220.908191,27.3204325 L220.908191,55.5441084 Z M99.8487526,131.841872 C107.163365,131.841872 114.092894,130.446342 120.637547,127.65524 C127.1822,124.864137 132.884625,121.086582 137.744993,116.322459 C142.60536,111.558337 146.455098,105.976216 149.294323,99.5759302 C152.133548,93.1756443 153.553139,86.318298 153.553139,79.0036856 C153.553139,71.6890732 152.133548,64.807666 149.294323,58.3592577 C146.455098,51.9108493 142.60536,46.2806071 137.744993,41.4683621 C132.884625,36.6561171 127.1822,32.8545005 120.637547,30.0633984 C114.092894,27.2722963 107.163365,25.8767662 99.8487526,25.8767662 C92.4378952,25.8767662 85.4602446,27.2722963 78.9155914,30.0633984 C72.3709382,32.8545005 66.6685133,36.6561171 61.8081459,41.4683621 C56.9477784,46.2806071 53.0980401,51.9108493 50.2588156,58.3592577 C47.419591,64.807666 46,71.6890732 46,79.0036856 C46,86.318298 47.419591,93.1756443 50.2588156,99.5759302 C53.0980401,105.976216 56.9477784,111.558337 61.8081459,116.322459 C66.6685133,121.086582 72.3709382,124.864137 78.9155914,127.65524 C85.4602446,130.446342 92.4378952,131.841872 99.8487526,131.841872 Z M320.312636,131.408772 L335.904232,131.408772 L335.904232,27.3204325 L320.312636,27.3204325 L389.031151,27.3204325 L389.031151,45.0775278 L389.031151,27.3204325 L335.904232,27.3204325 L335.904232,78.7149524 L381.235353,78.7149524 L335.904232,78.7149524 L335.904232,131.408772 L389.031151,131.408772 L389.031151,116.250276 L389.031151,131.408772 L320.312636,131.408772 Z M437.907275,131.264405 L454.076338,131.264405 L454.076338,27.1760658 L437.907275,27.1760658 L454.076338,27.1760658 L532.75615,132.563705 L532.75615,27.1760658 L518.030754,27.1760658 L548.925213,27.1760658 L532.75615,27.1760658 L532.75615,132.563705 L454.076338,27.1760658 L454.076338,131.264405 L470.2454,131.264405 L437.907275,131.264405 Z M716.11781,131.841872 C723.432422,131.841872 730.361951,130.446342 736.906604,127.65524 C743.451258,124.864137 749.153682,121.086582 754.01405,116.322459 C758.874417,111.558337 762.724156,105.976216 765.56338,99.5759302 C768.402605,93.1756443 769.822196,86.318298 769.822196,79.0036856 C769.822196,71.6890732 768.402605,64.807666 765.56338,58.3592577 C762.724156,51.9108493 758.874417,46.2806071 754.01405,41.4683621 C749.153682,36.6561171 743.451258,32.8545005 736.906604,30.0633984 C730.361951,27.2722963 723.432422,25.8767662 716.11781,25.8767662 C708.706953,25.8767662 701.729302,27.2722963 695.184649,30.0633984 C688.639995,32.8545005 682.937571,36.6561171 678.077203,41.4683621 C673.216836,46.2806071 669.367097,51.9108493 666.527873,58.3592577 C663.688648,64.807666 662.269057,71.6890732 662.269057,79.0036856 C662.269057,86.318298 663.688648,93.1756443 666.527873,99.5759302 C669.367097,105.976216 673.216836,111.558337 678.077203,116.322459 C682.937571,121.086582 688.639995,124.864137 695.184649,127.65524 C701.729302,130.446342 708.706953,131.841872 716.11781,131.841872 Z M820.141986,131.264405 L835.733582,131.264405 L835.733582,27.1760658 L820.141986,27.1760658 L888.860502,27.1760658 L888.860502,45.0775278 L888.860502,27.1760658 L835.733582,27.1760658 L835.733582,78.5705857 L881.064704,78.5705857 L835.733582,78.5705857 L835.733582,131.264405 L849.015312,131.264405 L820.141986,131.264405 Z M929.940828,131.264405 L945.532424,131.264405 L945.532424,27.1760658 L929.940828,27.1760658 L998.659343,27.1760658 L998.659343,45.0775278 L998.659343,27.1760658 L945.532424,27.1760658 L945.532424,78.5705857 L990.863545,78.5705857 L945.532424,78.5705857 L945.532424,131.264405 L958.814154,131.264405 L929.940828,131.264405 Z M1072.22216,131.264405 L1040.0284,131.264405 L1056.19747,131.264405 L1056.19747,27.1760658 L1040.0284,27.1760658 L1072.22216,27.1760658 L1056.19747,27.1760658 L1056.19747,131.264405 L1072.22216,131.264405 Z M1215.51406,112.64111 C1210.60557,119.378253 1204.44599,124.791948 1197.03513,128.882356 C1189.62427,132.972764 1181.53982,135.017938 1172.78154,135.017938 C1165.37068,135.017938 1158.39303,133.550225 1151.84838,130.614755 C1145.30372,127.679286 1139.6013,123.709243 1134.74093,118.704509 C1129.88056,113.699774 1126.03083,107.828923 1123.1916,101.09178 C1120.35238,94.3546368 1118.93279,87.1844993 1118.93279,79.5811521 C1118.93279,71.977805 1120.35238,64.7836066 1123.1916,57.9983411 C1126.03083,51.2130756 1129.88056,45.3181639 1134.74093,40.3134291 C1139.6013,35.3086942 1145.30372,31.3386516 1151.84838,28.4031822 C1158.39303,25.4677127 1165.37068,24 1172.78154,24 C1181.44358,24 1189.47991,25.9729909 1196.89077,29.9190318 C1204.30162,33.8650727 1210.4612,39.1584628 1215.36969,45.799361 L1215.36969,27.1760658 L1215.36969,45.799361 C1210.4612,39.1584628 1204.30162,33.8650727 1196.89077,29.9190318 C1189.47991,25.9729909 1181.44358,24 1172.78154,24 C1165.37068,24 1158.39303,25.4677127 1151.84838,28.4031822 C1145.30372,31.3386516 1139.6013,35.3086942 1134.74093,40.3134291 C1129.88056,45.3181639 1126.03083,51.2130756 1123.1916,57.9983411 C1120.35238,64.7836066 1118.93279,71.977805 1118.93279,79.5811521 C1118.93279,87.1844993 1120.35238,94.3546368 1123.1916,101.09178 C1126.03083,107.828923 1129.88056,113.699774 1134.74093,118.704509 C1139.6013,123.709243 1145.30372,127.679286 1151.84838,130.614755 C1158.39303,133.550225 1165.37068,135.017938 1172.78154,135.017938 C1181.53982,135.017938 1189.62427,132.972764 1197.03513,128.882356 C1204.44599,124.791948 1210.60557,119.378253 1215.51406,112.64111 Z M1265.68948,131.408772 L1281.28108,131.408772 L1281.28108,27.3204325 L1265.68948,27.3204325 L1334.408,27.3204325 L1334.408,45.0775278 L1334.408,27.3204325 L1281.28108,27.3204325 L1281.28108,78.7149524 L1326.6122,78.7149524 L1281.28108,78.7149524 L1281.28108,131.408772 L1334.408,131.408772 L1334.408,116.250276 L1334.408,131.408772 L1265.68948,131.408772 Z" id="OPEN-OFFICE" stroke="#FFFFFF" stroke-width="6" stroke-linecap="round" stroke-linejoin="round" fill="#FFFFFF"></path>
</g>
</svg>
