<?xml version="1.0" encoding="UTF-8" standalone="no"?>
<svg width="1400px" height="160px" viewBox="0 0 1400 160" version="1.1" xmlns="http://www.w3.org/2000/svg" xmlns:xlink="http://www.w3.org/1999/xlink">
<g stroke="none" stroke-width="1" fill="none" fill-rule="evenodd">
      <rect fill="#FFFFFF" x="0" y="0" width="1400" height="160"></rect>
      <polyline stroke="#000000" stroke-width="6" stroke-linecap="round" stroke-linejoin="round" points="1139.18076 134.211235 1093.04897 24.6734933 1044.78568 134.211235"></polyline>
      <path d="M1075.96651,24.0918666 L1092.30997,24.0918666 L1075.96651,24.0918666 Z" stroke="#000000" stroke-width="6" stroke-linecap="round" stroke-linejoin="round"></path>
      <path d="M1033.93493,134.091867 L1060.28591,134.091867 L1033.93493,134.091867 Z" stroke="#000000" stroke-width="6" stroke-linecap="round" stroke-linejoin="round"></path>
      <path d="M1126.0041,134.091867 L1152.35509,134.091867 L1126.0041,134.091867 Z" stroke="#000000" stroke-width="6" stroke-linecap="round" stroke-linejoin="round"></path>
      <path d="M1211.06801,24.0918666 L1227.41148,24.0918666 L1211.06801,24.0918666 Z" stroke="#000000" stroke-width="6" stroke-linecap="round" stroke-linejoin="round"></path>
      <path d="M1339.16425,24.0918666 L1355.50772,24.0918666 L1339.16425,24.0918666 Z" stroke="#000000" stroke-width="6" stroke-linecap="round" stroke-linejoin="round"></path>
      <polyline stroke="#000000" stroke-width="6" stroke-linecap="round" stroke-linejoin="round" points="1355.98496 134.211235 1339.0852 134.211235 1339.0852 24.5213575 1280.46889 134.210022 1228.09485 24.5213575 1228.09485 134.210022 1213.07557 134.211235"></polyline>
      <path d="M805.179512,27.1650088 L805.179512,49.1037644 C802.675831,45.5435099 799.835158,42.2719738 796.657408,39.2890579 C793.479659,36.306142 790.013075,33.7562683 786.257552,31.6393602 C782.50203,29.5224522 778.481756,27.8866841 774.196609,26.732007 C769.911462,25.5773299 765.506011,25 760.980125,25 C753.565376,25 746.584062,26.4673802 740.035972,29.4021845 C733.487882,32.3369889 727.782462,36.3061319 722.919542,41.3097328 C718.056623,46.3133336 714.204863,52.1828543 711.364147,58.9184708 C708.523432,65.6540874 707.103095,72.8226003 707.103095,80.4242247 C707.103095,88.0258491 708.523432,95.1703066 711.364147,101.857812 C714.204863,108.545317 718.056623,114.366726 722.919542,119.322216 C727.782462,124.277705 733.487882,128.198737 740.035972,131.08543 C746.584062,133.972123 753.565376,135.415448 760.980125,135.415448 C767.720806,135.415448 774.100284,134.236732 780.118749,131.879267 C786.137214,129.521801 791.505604,126.250265 796.224081,122.06456 C800.942557,117.878856 804.866538,112.947496 807.99614,107.270334 C811.125742,101.593171 813.171989,95.4349854 814.134943,88.795592" stroke="#000000" stroke-width="6" stroke-linecap="round" stroke-linejoin="round"></path>
      <polygon stroke="#000000" stroke-width="6" stroke-linecap="round" stroke-linejoin="round" points="814.279386 130.219427 814.279386 88.651258 751.302482 88.651258 814.279386 88.651258"></polygon>
      <path d="M885.631579,134.36337 L902.683595,134.36337 L902.683595,24.6734933 L885.631579,24.6734933 L931.002121,24.6734933 C936.077151,24.6734933 940.847607,25.3580973 945.313634,26.7273259 C949.77966,28.0965545 953.662,30.0996552 956.960769,32.7366881 C960.259539,35.373721 962.87314,38.7206741 964.801652,42.7776477 C966.730163,46.8346214 967.694404,51.5000712 967.694404,56.7741369 C967.694404,62.0482027 966.654039,66.7390081 964.573276,70.846694 C962.492514,74.9543798 959.675915,78.4027557 956.123394,81.1919251 C952.570873,83.9810945 948.434785,86.1109737 943.715007,87.5816267 C938.995229,89.0522796 933.9964,89.7875951 928.718368,89.7875951 L962.213399,134.36337 L974.865354,134.36337" stroke="#000000" stroke-width="6" stroke-linecap="round" stroke-linejoin="round"></path>
      <polyline stroke="#000000" stroke-width="6" stroke-linecap="round" stroke-linejoin="round" points="642.807831 134.211235 596.676039 24.6734933 548.412745 134.211235"></polyline>
      <path d="M579.593573,24.0918666 L595.93704,24.0918666 L579.593573,24.0918666 Z" stroke="#000000" stroke-width="6" stroke-linecap="round" stroke-linejoin="round"></path>
      <path d="M537.561994,134.091867 L563.91298,134.091867 L537.561994,134.091867 Z" stroke="#000000" stroke-width="6" stroke-linecap="round" stroke-linejoin="round"></path>
      <path d="M629.631167,134.091867 L655.982153,134.091867 L629.631167,134.091867 Z" stroke="#000000" stroke-width="6" stroke-linecap="round" stroke-linejoin="round"></path>
      <polyline stroke="#000000" stroke-width="6" stroke-linecap="round" stroke-linejoin="round" points="471.259401 24.5213575 471.259401 135.580456 388.283075 24.5213575 388.283075 134.211235"></polyline>
      <path d="M375.24812,135 L401.599106,135 L375.24812,135 Z" stroke="#000000" stroke-width="6" stroke-linecap="round" stroke-linejoin="round"></path>
      <path d="M457.309774,24 L483.66076,24 L457.309774,24 Z" stroke="#000000" stroke-width="6" stroke-linecap="round" stroke-linejoin="round"></path>
      <path d="M375.24812,24 L387.58858,24 L375.24812,24 Z" stroke="#000000" stroke-width="6" stroke-linecap="round" stroke-linejoin="round"></path>
      <polyline stroke="#000000" stroke-width="6" stroke-linecap="round" stroke-linejoin="round" points="298.549185 134.211235 252.417392 24.6734933 204.154098 134.211235"></polyline>
      <path d="M235.334927,24.0918666 L251.678393,24.0918666 L235.334927,24.0918666 Z" stroke="#000000" stroke-width="6" stroke-linecap="round" stroke-linejoin="round"></path>
      <path d="M193.303348,134.091867 L219.654333,134.091867 L193.303348,134.091867 Z" stroke="#000000" stroke-width="6" stroke-linecap="round" stroke-linejoin="round"></path>
      <path d="M285.372521,134.091867 L311.723506,134.091867 L285.372521,134.091867 Z" stroke="#000000" stroke-width="6" stroke-linecap="round" stroke-linejoin="round"></path>
      <path d="M45,134.36337 L62.0520156,134.36337 L62.0520156,24.6734933 L45,24.6734933 L90.3705416,24.6734933 C95.4455717,24.6734933 100.216028,25.3580973 104.682055,26.7273259 C109.148081,28.0965545 113.030421,30.0996552 116.32919,32.7366881 C119.62796,35.373721 122.241561,38.7206741 124.170073,42.7776477 C126.098584,46.8346214 127.062825,51.5000712 127.062825,56.7741369 C127.062825,62.0482027 126.02246,66.7390081 123.941697,70.846694 C121.860935,74.9543798 119.044336,78.4027557 115.491815,81.1919251 C111.939294,83.9810945 107.803206,86.1109737 103.083428,87.5816267 C98.3636504,89.0522796 93.3648208,89.7875951 88.0867895,89.7875951 L121.58182,134.36337 L134.233775,134.36337" stroke="#000000" stroke-width="6" stroke-linecap="round" stroke-linejoin="round"></path>
</g>
</svg>
