<?xml version="1.0" encoding="UTF-8" standalone="no"?>
<svg width="1300px" height="100px" viewBox="0 0 1300 100" version="1.1" xmlns="http://www.w3.org/2000/svg" xmlns:xlink="http://www.w3.org/1999/xlink">
<g stroke="none" stroke-width="1" fill="none" fill-rule="evenodd">
    <rect fill="#FFB48C" x="0" y="0" width="1300" height="100"></rect>
    <path d="M64.2282054,65.8534699 L64.2282054,76.3696114 L30.7466667,76.3696114 L56.7277221,50.3112314 C58.0164714,49.0224821 59.1376665,47.811076 60.0913409,46.6769766 C61.0450154,45.5428772 61.8311407,44.3959076 62.4497403,43.2360332 C63.06834,42.0761589 63.5193955,40.8647528 63.8029203,39.6017785 C64.0864451,38.3388042 64.2282054,36.9340885 64.2282054,35.3875894 C64.2282054,33.8410903 64.0091213,32.1786286 63.5709466,30.4001546 C63.1327718,28.6216806 62.3337593,26.959219 61.1738849,25.4127199 C60.0140106,23.8662208 58.4030981,22.5774908 56.3410993,21.5464914 C54.2791005,20.515492 51.6500914,20 48.4539932,20 C45.206345,20 42.5000121,20.5670412 40.3349133,21.7011405 C38.1698145,22.8352399 36.4171418,24.2141809 35.0768426,25.838005 C33.7365433,27.4618291 32.7828832,29.1500653 32.2158335,30.9027644 C31.6487838,32.6554634 31.3652632,34.1503901 31.3652632,35.3875894 C31.3652632,34.1503901 31.6487838,32.6554634 32.2158335,30.9027644 C32.7828832,29.1500653 33.7365433,27.4618291 35.0768426,25.838005 C36.4171418,24.2141809 38.1698145,22.8352399 40.3349133,21.7011405 C42.5000121,20.5670412 45.206345,20 48.4539932,20 C51.6500914,20 54.2791005,20.515492 56.3410993,21.5464914 C58.4030981,22.5774908 60.0140106,23.8662208 61.1738849,25.4127199 C62.3337593,26.959219 63.1327718,28.6216806 63.5709466,30.4001546 C64.0091213,32.1786286 64.2282054,33.8410903 64.2282054,35.3875894 C64.2282054,36.9340885 64.0864451,38.3388042 63.8029203,39.6017785 C63.5193955,40.8647528 63.06834,42.0761589 62.4497403,43.2360332 C61.8311407,44.3959076 61.0450154,45.5428772 60.0913409,46.6769766 C59.1376665,47.811076 58.0164714,49.0224821 56.7277221,50.3112314 L30.7466667,76.3696114 L64.2282054,76.3696114 L64.2282054,65.8534699 Z M106.679394,20.0773246 L107.297991,20.0773246 C109.823939,20.0773246 112.195202,20.5541546 114.411851,21.5078291 C116.6285,22.4615036 118.561595,23.7631208 120.211194,25.4127199 C121.860793,27.062319 123.16241,28.9954139 124.116085,31.2120626 C125.069759,33.4287114 125.546589,35.7999745 125.546589,38.3259231 L125.546589,58.5849604 C125.546589,61.110909 125.069759,63.4692847 124.116085,65.6601585 C123.16241,67.8510323 121.860793,69.7712399 120.211194,71.420839 C118.561595,73.070438 116.6285,74.3720553 114.411851,75.3257298 C112.195202,76.2794042 109.823939,76.7562343 107.297991,76.7562343 L106.679394,76.7562343 C104.153445,76.7562343 101.782182,76.2794042 99.5655336,75.3257298 C97.3488849,74.3720553 95.41579,73.070438 93.7661909,71.420839 C92.1165918,69.7712399 90.8149746,67.8510323 89.8613001,65.6601585 C88.9076256,63.4692847 88.4307956,61.110909 88.4307956,58.5849604 L88.4307956,38.3259231 C88.4307956,35.7999745 88.9076256,33.4287114 89.8613001,31.2120626 C90.8149746,28.9954139 92.1165918,27.062319 93.7661909,25.4127199 C95.41579,23.7631208 97.3488849,22.4615036 99.5655336,21.5078291 C101.782182,20.5541546 104.153445,20.0773246 106.679394,20.0773246 L106.679394,20.0773246 Z M106.679394,20.0773246 L107.297991,20.0773246 C109.823939,20.0773246 112.195202,20.5541546 114.411851,21.5078291 C116.6285,22.4615036 118.561595,23.7631208 120.211194,25.4127199 C121.860793,27.062319 123.16241,28.9954139 124.116085,31.2120626 C125.069759,33.4287114 125.546589,35.7999745 125.546589,38.3259231 L125.546589,58.5849604 C125.546589,61.110909 125.069759,63.4692847 124.116085,65.6601585 C123.16241,67.8510323 121.860793,69.7712399 120.211194,71.420839 C118.561595,73.070438 116.6285,74.3720553 114.411851,75.3257298 C112.195202,76.2794042 109.823939,76.7562343 107.297991,76.7562343 L106.679394,76.7562343 C104.153445,76.7562343 101.782182,76.2794042 99.5655336,75.3257298 C97.3488849,74.3720553 95.41579,73.070438 93.7661909,71.420839 C92.1165918,69.7712399 90.8149746,67.8510323 89.8613001,65.6601585 C88.9076256,63.4692847 88.4307956,61.110909 88.4307956,58.5849604 L88.4307956,38.3259231 C88.4307956,35.7999745 88.9076256,33.4287114 89.8613001,31.2120626 C90.8149746,28.9954139 92.1165918,27.062319 93.7661909,25.4127199 C95.41579,23.7631208 97.3488849,22.4615036 99.5655336,21.5078291 C101.782182,20.5541546 104.153445,20.0773246 106.679394,20.0773246 L106.679394,20.0773246 Z M157.636285,76.3696114 L165.83269,76.3696114 L165.83269,20.541272 L152.610188,20.541272 L165.83269,20.541272 L165.83269,76.3696114 L174.106419,76.3696114 L157.636285,76.3696114 Z M205.732168,45.8264063 C207.433317,44.0221574 209.443735,42.5787798 211.763484,41.4962304 C214.083233,40.413681 216.583369,39.8724145 219.263967,39.8724145 C221.789916,39.8724145 224.186954,40.3621318 226.455152,41.3415813 C228.723351,42.3210307 230.695108,43.6613099 232.370482,45.3624589 C234.045856,47.063608 235.373248,49.0482521 236.352697,51.3164508 C237.332147,53.5846495 237.821864,55.9816872 237.821864,58.5076358 C237.821864,61.0851344 237.332147,63.4950593 236.352697,65.7374831 C235.373248,67.9799068 234.045856,69.925889 232.370482,71.5754881 C230.695108,73.2250872 228.723351,74.5395917 226.455152,75.5190412 C224.186954,76.4984906 221.789916,76.988208 219.263967,76.988208 C216.686469,76.988208 214.263657,76.4984906 211.995458,75.5190412 C209.727259,74.5395917 207.755502,73.2250872 206.080128,71.5754881 C204.404754,69.925889 203.077362,67.9799068 202.097913,65.7374831 C201.118463,63.4950593 200.628746,61.0851344 200.628746,58.5076358 C200.628746,56.394087 200.98959,54.4223302 201.71129,52.5923062 C202.43299,50.7622822 203.309326,49.0482714 204.340325,47.4502223 L222.898222,20.3092983 L204.340325,47.4502223 C203.309326,49.0482714 202.43299,50.7622822 201.71129,52.5923062 C200.98959,54.4223302 200.628746,56.394087 200.628746,58.5076358 C200.628746,61.0851344 201.118463,63.4950593 202.097913,65.7374831 C203.077362,67.9799068 204.404754,69.925889 206.080128,71.5754881 C207.755502,73.2250872 209.727259,74.5395917 211.995458,75.5190412 C214.263657,76.4984906 216.686469,76.988208 219.263967,76.988208 C221.789916,76.988208 224.186954,76.4984906 226.455152,75.5190412 C228.723351,74.5395917 230.695108,73.2250872 232.370482,71.5754881 C234.045856,69.925889 235.373248,67.9799068 236.352697,65.7374831 C237.332147,63.4950593 237.821864,61.0851344 237.821864,58.5076358 C237.821864,55.9816872 237.332147,53.5846495 236.352697,51.3164508 C235.373248,49.0482521 234.045856,47.063608 232.370482,45.3624589 C230.695108,43.6613099 228.723351,42.3210307 226.455152,41.3415813 C224.186954,40.3621318 221.789916,39.8724145 219.263967,39.8724145 C216.583369,39.8724145 214.083233,40.413681 211.763484,41.4962304 C209.443735,42.5787798 207.433317,44.0221574 205.732168,45.8264063 L205.732168,45.8264063 Z" stroke="#000000" stroke-width="5" stroke-linecap="round" stroke-linejoin="round"></path>
    <ellipse fill="#000000" cx="268.571429" cy="72.8571429" rx="7.14285714" ry="7.14285714"></ellipse>
    <ellipse fill="#000000" cx="412.380952" cy="72.8571429" rx="7.14285714" ry="7.14285714"></ellipse>
    <path d="M307.723275,75.8283395 L315.919679,75.8283395 L315.919679,20 L302.697178,20 L315.919679,20 L315.919679,75.8283395 L324.193408,75.8283395 L307.723275,75.8283395 Z M359.76271,75.8283395 L367.959115,75.8283395 L367.959115,20 L354.736613,20 L367.959115,20 L367.959115,75.8283395 L376.232844,75.8283395 L359.76271,75.8283395 Z" id="11" stroke="#000000" stroke-width="5" stroke-linecap="round" stroke-linejoin="round"></path>
    <path d="M449.691184,75.8283395 L457.887589,75.8283395 L457.887589,20 L444.665087,20 L457.887589,20 L457.887589,75.8283395 L466.161318,75.8283395 L449.691184,75.8283395 Z M513.329305,75.8283395 L529.799439,75.8283395 L521.52571,75.8283395 L521.52571,20 L520.133867,20 L492.297022,61.3686449 L492.297022,62.7604871 L529.799439,62.7604871 L492.297022,62.7604871 L492.297022,61.3686449 L520.133867,20 L521.52571,20 L521.52571,75.8283395 L513.329305,75.8283395 Z" stroke="#000000" stroke-width="5" stroke-linecap="round" stroke-linejoin="round"></path>
    <path d="M581.796345,76.446936 L590.379372,76.446936 L590.379372,20.6959211 L581.796345,20.6959211 L590.379372,20.6959211 L616.979024,76.9108834 L646.748984,20.6959211 L655.332011,20.6959211 L646.748984,20.6959211 L646.748984,76.446936 L655.332011,76.446936 L638.088632,76.446936 L646.748984,76.446936 L646.748984,20.6959211 L616.979024,76.9108834 L590.379372,20.6959211 L590.379372,76.446936 L599.039724,76.446936 L581.796345,76.446936 Z M707.236128,76.7562343 C711.153926,76.7562343 714.865468,76.0087709 718.370866,74.5138218 C721.876265,73.0188726 724.930554,70.9955666 727.533828,68.443843 C730.137102,65.8921195 732.199069,62.902266 733.719794,59.4741929 C735.240518,56.0461199 736.000868,52.3732395 736.000868,48.4554417 C736.000868,44.5376439 735.240518,40.8518763 733.719794,37.3980282 C732.199069,33.9441802 730.137102,30.9285521 727.533828,28.3510535 C724.930554,25.773555 721.876265,23.7373617 718.370866,22.2424125 C714.865468,20.7474634 711.153926,20 707.236128,20 C703.266781,20 699.529464,20.7474634 696.024066,22.2424125 C692.518668,23.7373617 689.464378,25.773555 686.861104,28.3510535 C684.257831,30.9285521 682.195863,33.9441802 680.675139,37.3980282 C679.154415,40.8518763 678.394064,44.5376439 678.394064,48.4554417 C678.394064,52.3732395 679.154415,56.0461199 680.675139,59.4741929 C682.195863,62.902266 684.257831,65.8921195 686.861104,68.443843 C689.464378,70.9955666 692.518668,73.0188726 696.024066,74.5138218 C699.529464,76.0087709 703.266781,76.7562343 707.236128,76.7562343 L707.236128,76.7562343 Z M760.83752,76.446936 L769.497872,76.446936 L769.497872,20.6959211 L760.83752,20.6959211 L769.497872,20.6959211 L811.639762,77.1428571 L811.639762,20.6959211 L803.752656,20.6959211 L820.300114,20.6959211 L811.639762,20.6959211 L811.639762,77.1428571 L769.497872,20.6959211 L769.497872,76.446936 L778.158224,76.446936 L760.83752,76.446936 Z" stroke="#000000" stroke-width="5" stroke-linecap="round" stroke-linejoin="round"></path>
    <path d="M930.412261,48.952327 L913.503528,33.6843362 C913.033738,33.3063377 912.520147,33.2336105 911.96229,33.4663072 C911.405051,33.6993095 911.125275,34.1206998 911.125275,34.7317006 L911.125275,44.5031292 L856.170966,44.5031292 C855.759784,44.5031292 855.422017,44.6337632 855.158126,44.8954898 C854.89439,45.1570635 854.761905,45.49167 854.761905,45.8986983 L854.761905,54.2739466 C854.761905,54.6808221 854.893773,55.0154286 855.157972,55.2766968 C855.422479,55.5382705 855.760247,55.6689046 856.170812,55.6689046 L911.125583,55.6689046 L911.125583,65.4401804 C911.125583,66.0226097 911.405822,66.4440001 911.962753,66.7049626 C912.521072,66.9385761 913.034664,66.8502644 913.504453,66.4440001 L930.413187,51.0006082 C930.70669,50.7100047 930.853056,50.3616471 930.853056,49.9541605 C930.853056,49.5770788 930.705764,49.2430833 930.412261,48.952327 L930.412261,48.952327 Z" fill="#000000"></path>
    <path d="M1000.50954,65.9779027 L1000.50954,76.5225819 L966.937143,76.5225819 L992.988703,50.3934871 C994.28095,49.1012406 995.405187,47.886547 996.36145,46.74937 C997.317712,45.6121931 998.105971,44.4621109 998.726249,43.299089 C999.346528,42.1360671 999.798807,40.9213735 1000.0831,39.6549719 C1000.3674,38.3885703 1000.50954,36.9800426 1000.50954,35.4293468 C1000.50954,33.8786509 1000.28986,32.2116778 999.850498,30.4283776 C999.411134,28.6450773 998.609953,26.9781043 997.446932,25.4274084 C996.28391,23.8767125 994.668626,22.5844854 992.601031,21.5506881 C990.533437,20.5168909 987.897293,20 984.692522,20 C981.43606,20 978.722383,20.56858 976.551409,21.7057569 C974.380435,22.8429339 972.623006,24.225617 971.27907,25.8538476 C969.935133,27.4820783 968.978885,29.1748959 968.410297,30.9323512 C967.841708,32.6898066 967.557418,34.1887901 967.557418,35.4293468 C967.557418,34.1887901 967.841708,32.6898066 968.410297,30.9323512 C968.978885,29.1748959 969.935133,27.4820783 971.27907,25.8538476 C972.623006,24.225617 974.380435,22.8429339 976.551409,21.7057569 C978.722383,20.56858 981.43606,20 984.692522,20 C987.897293,20 990.533437,20.5168909 992.601031,21.5506881 C994.668626,22.5844854 996.28391,23.8767125 997.446932,25.4274084 C998.609953,26.9781043 999.411134,28.6450773 999.850498,30.4283776 C1000.28986,32.2116778 1000.50954,33.8786509 1000.50954,35.4293468 C1000.50954,36.9800426 1000.3674,38.3885703 1000.0831,39.6549719 C999.798807,40.9213735 999.346528,42.1360671 998.726249,43.299089 C998.105971,44.4621109 997.317712,45.6121931 996.36145,46.74937 C995.405187,47.886547 994.28095,49.1012406 992.988703,50.3934871 L966.937143,76.5225819 L1000.50954,76.5225819 L1000.50954,65.9779027 Z M1023.22712,65.280093 C1023.22712,66.8307889 1023.82155,68.3297724 1025.01041,69.7770886 C1026.19928,71.2244047 1027.68534,72.4907874 1029.46864,73.5762745 C1031.25194,74.6617616 1033.17736,75.5275538 1035.24495,76.1736771 C1037.31255,76.8198003 1039.25089,77.1428571 1041.06003,77.1428571 C1042.86918,77.1428571 1044.85921,76.8327226 1047.03018,76.2124443 C1049.20116,75.5921659 1051.21703,74.5583842 1053.07787,73.111068 C1054.9387,71.6637519 1056.48938,69.7900225 1057.72993,67.4898236 C1058.97049,65.1896247 1059.59076,62.3596472 1059.59076,58.9998062 C1059.59076,55.691655 1058.90588,52.887522 1057.5361,50.5873231 C1056.16631,48.2871242 1054.48642,46.4263171 1052.49636,45.0048459 C1050.5063,43.5833747 1048.41289,42.5625152 1046.21607,41.9422369 C1044.01925,41.3219585 1042.09384,41.011824 1040.43976,41.011824 C1038.78568,41.011824 1037.32547,41.1410467 1036.05907,41.399496 C1034.79266,41.6579453 1033.61674,42.071458 1032.53125,42.6400465 C1031.44576,43.208635 1030.4249,43.9452045 1029.46864,44.8497771 C1028.51238,45.7543497 1027.51736,46.8527428 1026.48357,48.1449893 L1030.82549,20.5427408 L1055.6365,20.5427408 L1030.82549,20.5427408 L1026.48357,48.1449893 C1027.51736,46.8527428 1028.51238,45.7543497 1029.46864,44.8497771 C1030.4249,43.9452045 1031.44576,43.208635 1032.53125,42.6400465 C1033.61674,42.071458 1034.79266,41.6579453 1036.05907,41.399496 C1037.32547,41.1410467 1038.78568,41.011824 1040.43976,41.011824 C1042.09384,41.011824 1044.01925,41.3219585 1046.21607,41.9422369 C1048.41289,42.5625152 1050.5063,43.5833747 1052.49636,45.0048459 C1054.48642,46.4263171 1056.16631,48.2871242 1057.5361,50.5873231 C1058.90588,52.887522 1059.59076,55.691655 1059.59076,58.9998062 C1059.59076,62.3596472 1058.97049,65.1896247 1057.72993,67.4898236 C1056.48938,69.7900225 1054.9387,71.6637519 1053.07787,73.111068 C1051.21703,74.5583842 1049.20116,75.5921659 1047.03018,76.2124443 C1044.85921,76.8327226 1042.86918,77.1428571 1041.06003,77.1428571 C1039.25089,77.1428571 1037.31255,76.8198003 1035.24495,76.1736771 C1033.17736,75.5275538 1031.25194,74.6617616 1029.46864,73.5762745 C1027.68534,72.4907874 1026.19928,71.2244047 1025.01041,69.7770886 C1023.82155,68.3297724 1023.22712,66.8307889 1023.22712,65.280093 L1023.22712,65.280093 Z" stroke="#000000" stroke-width="5" stroke-linecap="round" stroke-linejoin="round"></path>
    <path d="M1112.14099,76.7726665 L1120.51471,76.7726665 L1120.51471,20.8703599 L1112.14099,20.8703599 L1149.04737,20.8703599 L1149.04737,30.4846262 L1149.04737,20.8703599 L1120.51471,20.8703599 L1120.51471,48.4726084 L1144.86051,48.4726084 L1120.51471,48.4726084 L1120.51471,76.7726665 L1127.64787,76.7726665 L1112.14099,76.7726665 Z M1221.35466,76.8502009 L1215.07438,76.8502009 L1198.01681,54.13262 C1200.70468,54.13262 1203.25037,53.7578741 1205.65395,53.0083711 C1208.05753,52.2588681 1210.16386,51.1733973 1211.973,49.7519261 C1213.78215,48.3304549 1215.21652,46.5730259 1216.27616,44.4795865 C1217.3358,42.3861471 1217.86562,39.9955268 1217.86562,37.3076539 C1217.86562,34.6197811 1217.37457,32.2420831 1216.39246,30.1744886 C1215.41036,28.1068941 1214.07936,26.4011542 1212.39944,25.0572178 C1210.71952,23.7132814 1208.74241,22.6924219 1206.46806,21.9946088 C1204.1937,21.2967956 1201.76432,20.9478943 1199.17982,20.9478943 L1184.75843,20.9478943 L1184.75843,76.8502009 L1193.44228,76.8502009 L1176.07457,76.8502009 L1184.75843,76.8502009 L1184.75843,20.9478943 L1176.07457,20.9478943 L1199.17982,20.9478943 C1201.76432,20.9478943 1204.1937,21.2967956 1206.46806,21.9946088 C1208.74241,22.6924219 1210.71952,23.7132814 1212.39944,25.0572178 C1214.07936,26.4011542 1215.41036,28.1068941 1216.39246,30.1744886 C1217.37457,32.2420831 1217.86562,34.6197811 1217.86562,37.3076539 C1217.86562,39.9955268 1217.3358,42.3861471 1216.27616,44.4795865 C1215.21652,46.5730259 1213.78215,48.3304549 1211.973,49.7519261 C1210.16386,51.1733973 1208.05753,52.2588681 1205.65395,53.0083711 C1203.25037,53.7578741 1200.70468,54.13262 1198.01681,54.13262 L1215.07438,76.8502009 L1221.35466,76.8502009 Z M1269.93643,76.7726665 L1252.64626,76.7726665 L1261.33011,76.7726665 L1261.33011,20.8703599 L1252.64626,20.8703599 L1269.93643,20.8703599 L1261.33011,20.8703599 L1261.33011,76.7726665 L1269.93643,76.7726665 Z" stroke="#000000" stroke-width="5" stroke-linecap="round" stroke-linejoin="round"></path>
</g>
</svg>
